<svg xmlns="http://www.w3.org/2000/svg" width="244" height="66" viewBox="0 0 122 33">
  <metadata><?xpacket begin="﻿" id="W5M0MpCehiHzreSzNTczkc9d"?>
<x:xmpmeta xmlns:x="adobe:ns:meta/" x:xmptk="Adobe XMP Core 5.6-c142 79.160924, 2017/07/13-01:06:39        ">
   <rdf:RDF xmlns:rdf="http://www.w3.org/1999/02/22-rdf-syntax-ns#">
      <rdf:Description rdf:about=""/>
   </rdf:RDF>
</x:xmpmeta>
                                                                                                    
                                                                                                    
                                                                                                    
                                                                                                    
                                                                                                    
                                                                                                    
                                                                                                    
                                                                                                    
                                                                                                    
                                                                                                    
                                                                                                    
                                                                                                    
                                                                                                    
                                                                                                    
                                                                                                    
                                                                                                    
                                                                                                    
                                                                                                    
                                                                                                    
                                                                                                    
                           
<?xpacket end="w"?></metadata>
<defs>
    <style>
      .cls-1 {
        fill: #fff;
        fill-rule: evenodd;
      }
    </style>
  </defs>
  <path class="cls-1" d="M19.475,13.931a9.714,9.714,0,0,0,.958-3.4,6.534,6.534,0,0,1,3.5,2.093,7.185,7.185,0,0,1,1.45,5.086,7.159,7.159,0,0,1-2.049,4.969,7.209,7.209,0,0,1-5.307,1.741c-1.3-.047-2.6-0.155-3.9-0.166a3.647,3.647,0,0,0-3.331,3.392A7.187,7.187,0,0,1,6.33,25.7a7.028,7.028,0,0,1-2.19-5.407,42.72,42.72,0,0,1,.392-5.372c1.207,0.055,2.415.093,3.62,0.184a14.862,14.862,0,0,0-.45,4.038,6.3,6.3,0,0,0,.151,2.634,4.636,4.636,0,0,0,1.032,1.529,7.075,7.075,0,0,1,5.375-2.594c1.491,0.029,2.977.173,4.467,0.177a3.012,3.012,0,0,0,2.714-1.505,5.093,5.093,0,0,0,.155-3.889A2.861,2.861,0,0,0,19.475,13.931ZM3.046,0.982A7.741,7.741,0,0,1,7.4.015c2.43,0.124,4.862.218,7.289,0.354a6.906,6.906,0,0,1,5.37,3.047,8.113,8.113,0,0,1,1,5.034,19.767,19.767,0,0,1-.52,4.855,7.111,7.111,0,0,1-3.583,4.042,7.9,7.9,0,0,1-3.371.737,3.682,3.682,0,0,0-1.462-3.057A4.529,4.529,0,0,0,9.355,14.3a20.947,20.947,0,0,1-4.731-.48A6.182,6.182,0,0,1,.409,9.92a9.371,9.371,0,0,1-.116-5.07A5.949,5.949,0,0,1,3.046.982Zm0.919,3.95A5.975,5.975,0,0,0,3.572,8.1a2.724,2.724,0,0,0,2.067,2.334c2.18,0.463,4.48.012,6.617,0.72A7.516,7.516,0,0,1,15.923,13.9,3.652,3.652,0,0,0,17.3,11.8c0.179-1.1.137-2.229,0.221-3.341a6.154,6.154,0,0,0-.265-2.834A3.233,3.233,0,0,0,14.348,3.9c-2.492-.114-4.986-0.243-7.479-0.346A3.1,3.1,0,0,0,3.965,4.932ZM8.4,7.287a0.686,0.686,0,1,1-.653-0.722A0.688,0.688,0,0,1,8.4,7.287Zm3.3,0.156a0.686,0.686,0,1,1-.653-0.722A0.688,0.688,0,0,1,11.7,7.443ZM14.75,7.587A0.686,0.686,0,1,1,14.1,6.864,0.688,0.688,0,0,1,14.75,7.587Zm33.48,12.607a6.965,6.965,0,0,1-2.26,4.962,6.808,6.808,0,0,1-4.9,2.287H39.343a7.247,7.247,0,0,1-2.8-.81,1.8,1.8,0,0,1-1.609.81,3.12,3.12,0,0,1-1.8-.579,1.872,1.872,0,0,1-.958-1.546V2.1a2.541,2.541,0,0,1,5.018.113V11.7a5.812,5.812,0,0,1,2.114-.579h1.73a6.843,6.843,0,0,1,4.92,2.288,6.953,6.953,0,0,1,2.268,4.962v1.822Zm-5.018-.007V18.34a2.052,2.052,0,0,0-.8-1.416,2.28,2.28,0,0,0-1.455-.747H39.458A2.257,2.257,0,0,0,38,16.944a2.112,2.112,0,0,0-.8,1.435v1.809a2.222,2.222,0,0,0,.785,1.4,2.134,2.134,0,0,0,1.36.806h1.724a2.135,2.135,0,0,0,1.36-.806A2.226,2.226,0,0,0,43.211,20.187Zm23.173,5.139a1.612,1.612,0,0,1-.268.693A2.518,2.518,0,0,1,63.9,27.444a2.432,2.432,0,0,1-1.8-.849,7.279,7.279,0,0,1-2.873.849H57.5a6.814,6.814,0,0,1-4.9-2.282,6.938,6.938,0,0,1-2.26-4.95V13.288a2.54,2.54,0,0,1,5.018.119v6.7a2.316,2.316,0,0,0,.747,1.472,2.036,2.036,0,0,0,1.4.813h1.724a2.146,2.146,0,0,0,1.36-.791,2.171,2.171,0,0,0,.785-1.369V13.322a2.545,2.545,0,0,1,5.018,0v12.01Zm18.538-.121a2.045,2.045,0,0,1-.536,1.215,2.515,2.515,0,0,1-1.015.849,2.655,2.655,0,0,1-.9.174,2.552,2.552,0,0,1-1.839-.849,7.279,7.279,0,0,1-2.873.849H76.037a6.807,6.807,0,0,1-4.9-2.287,6.962,6.962,0,0,1-2.26-4.962V18.411a7.018,7.018,0,0,1,2.249-5,6.817,6.817,0,0,1,4.939-2.288h1.73a5.346,5.346,0,0,1,2.114.579V2.209a2.531,2.531,0,0,1,5.018,0v23Zm-5.018-5.018V18.34a2.052,2.052,0,0,0-.8-1.416,2.281,2.281,0,0,0-1.455-.747H76.152a2.257,2.257,0,0,0-1.455.767,2.112,2.112,0,0,0-.8,1.435v1.809a2.222,2.222,0,0,0,.785,1.4,2.134,2.134,0,0,0,1.36.806H77.76a2.135,2.135,0,0,0,1.36-.806A2.226,2.226,0,0,0,79.905,20.187Zm23.557,5.018a2.042,2.042,0,0,1-.537,1.215,2.516,2.516,0,0,1-1.015.849,2.65,2.65,0,0,1-.9.174,2.552,2.552,0,0,1-1.838-.849,7.279,7.279,0,0,1-2.873.849H94.575a6.806,6.806,0,0,1-4.9-2.287,6.962,6.962,0,0,1-2.26-4.962V18.411a7.018,7.018,0,0,1,2.249-5A6.817,6.817,0,0,1,94.6,11.122h1.73a5.346,5.346,0,0,1,2.114.579V2.209a2.531,2.531,0,0,1,5.018,0v23Zm-5.018-5.018V18.34a2.052,2.052,0,0,0-.8-1.416,2.281,2.281,0,0,0-1.456-.747H94.69a2.257,2.257,0,0,0-1.456.767,2.113,2.113,0,0,0-.8,1.435v1.809a2.223,2.223,0,0,0,.785,1.4,2.134,2.134,0,0,0,1.36.806H96.3a2.135,2.135,0,0,0,1.36-.806A2.225,2.225,0,0,0,98.444,20.187ZM122,25.8a6.8,6.8,0,0,1-.364,1.734,6.984,6.984,0,0,1-.67,1.656A7.629,7.629,0,0,1,114.224,33a4,4,0,0,1-1.11-.154,3.53,3.53,0,0,1-1.494-1.5,2.637,2.637,0,0,1,0-1.775,2.308,2.308,0,0,1,1.57-1.466,12.015,12.015,0,0,1,1.877-.232,3.917,3.917,0,0,0,.843-0.424h-2.681a7.183,7.183,0,0,1-4.98-2.282,6.8,6.8,0,0,1-2.3-4.95V13.288a2.54,2.54,0,0,1,5.018.119v6.7a2.315,2.315,0,0,0,.747,1.472,2.035,2.035,0,0,0,1.4.813h3.868V13.322a2.545,2.545,0,0,1,5.018,0V25.8Z"/>
</svg>
